<?xml version="1.0" standalone="no"?>
<!DOCTYPE svg PUBLIC "-//W3C//DTD SVG 20010904//EN"
 "http://www.w3.org/TR/2001/REC-SVG-20010904/DTD/svg10.dtd">
<svg version="1.0" xmlns="http://www.w3.org/2000/svg"
 width="251.000000pt" height="256.000000pt" viewBox="0 0 251.000000 256.000000"
 preserveAspectRatio="xMidYMid meet">

<g transform="translate(0.000000,256.000000) scale(0.100000,-0.100000)"
fill="#000000" stroke="none">
<path d="M574 2356 c-133 -33 -215 -121 -244 -258 -21 -105 20 -230 100 -302
111 -100 279 -113 399 -31 l47 33 255 -147 c140 -81 312 -181 384 -222 l130
-75 1 -90 2 -89 -92 -53 c-50 -29 -224 -131 -386 -227 -276 -164 -296 -174
-315 -159 -90 66 -192 86 -293 55 -138 -42 -222 -156 -222 -302 0 -64 5 -85
30 -137 65 -128 204 -199 337 -172 77 16 119 39 169 92 67 69 87 119 89 218
l2 85 384 227 c211 125 389 228 395 228 6 0 19 -9 28 -19 54 -60 210 -83 314
-47 123 42 215 175 215 311 0 236 -247 398 -458 301 -33 -15 -69 -36 -80 -46
-20 -19 -25 -16 -404 203 l-384 222 -1 85 c-1 71 -5 94 -29 142 -67 137 -227
212 -373 174z"/>
</g>
</svg>
